<svg xmlns="http://www.w3.org/2000/svg" width="512" height="512" viewBox="0 0 512 512" role="img" aria-label="PayBridge logo">
  <defs>
    <linearGradient id="pbBg" x1="0" y1="0" x2="1" y2="1">
      <stop offset="0" stop-color="#1E1B4B"/>
      <stop offset="1" stop-color="#6D28D9"/>
    </linearGradient>
  </defs>
  <rect width="512" height="512" rx="112" fill="url(#pbBg)"/>
  <g stroke="#EDE9FE" fill="none" stroke-linecap="round">
    <path d="M72 336 H440" stroke-width="18"/>
    <path d="M176 118 V356 M336 118 V356" stroke-width="14"/>
    <path d="M72 336 C110 232 140 158 176 122" stroke-width="10"/>
    <path d="M440 336 C402 232 372 158 336 122" stroke-width="10"/>
    <path d="M176 122 Q256 268 336 122" stroke-width="10"/>
    <path d="M216 177 V336 M296 177 V336" stroke-width="6" opacity="0.85"/>
    <path d="M96 440 Q176 316 256 440 M256 440 Q336 316 416 440" stroke-width="12" opacity="0.85"/>
  </g>
  <circle cx="256" cy="216" r="46" fill="#EDE9FE"/>
  <circle cx="256" cy="216" r="26" fill="none" stroke="#4C1D95" stroke-width="8"/>
</svg>
