<svg xmlns="http://www.w3.org/2000/svg" width="1600" height="900" viewBox="0 0 1600 900" role="img" aria-label="PayBridge preview">
  <defs>
    <linearGradient id="pbBanner" x1="0" y1="0" x2="1" y2="1">
      <stop offset="0" stop-color="#070A18"/>
      <stop offset="0.55" stop-color="#1E1B4B"/>
      <stop offset="1" stop-color="#4C1D95"/>
    </linearGradient>
  </defs>
  <rect width="1600" height="900" fill="url(#pbBanner)"/>
  <g stroke="#8B5CF6" fill="none" opacity="0.30" stroke-linecap="round">
    <path d="M0 760 H1600" stroke-width="6"/>
    <path d="M400 760 V560 M1200 760 V560" stroke-width="8"/>
    <path d="M60 760 Q400 640 740 760" stroke-width="6"/>
    <path d="M860 760 Q1200 640 1540 760" stroke-width="6"/>
    <path d="M0 640 Q400 540 800 640 Q1200 740 1600 640" stroke-width="4"/>
    <path d="M400 560 Q800 470 1200 560" stroke-width="5"/>
  </g>
  <g fill="#C4B5FD" opacity="0.5">
    <circle cx="400" cy="560" r="9"/>
    <circle cx="1200" cy="560" r="9"/>
    <circle cx="800" cy="640" r="9"/>
    <circle cx="240" cy="700" r="7"/>
    <circle cx="1360" cy="700" r="7"/>
  </g>
  <g transform="translate(800 240)">
    <g stroke="#A78BFA" fill="none" stroke-linecap="round">
      <path d="M-110 46 H110" stroke-width="12"/>
      <path d="M-110 46 Q0 -116 110 46" stroke-width="10"/>
      <path d="M-55 -15 V46 M55 -15 V46" stroke-width="6"/>
    </g>
    <circle cx="0" cy="-35" r="30" fill="#EDE9FE"/>
    <circle cx="0" cy="-35" r="16" fill="none" stroke="#4C1D95" stroke-width="7"/>
  </g>
  <g font-family="Segoe UI, Arial, Helvetica, sans-serif" text-anchor="middle">
    <text x="800" y="500" font-size="118" font-weight="700" fill="#F5F3FF">PayBridge</text>
    <text x="800" y="580" font-size="44" font-weight="600" fill="#A78BFA" letter-spacing="8">Stellar • Soroban • Open Source</text>
    <text x="800" y="660" font-size="34" fill="#C4B5FD" opacity="0.9">app · user-facing web application</text>
  </g>
</svg>
